<svg width="46" height="46" viewBox="0 0 46 46" fill="none" xmlns="http://www.w3.org/2000/svg">
<rect width="46" height="46" rx="8" fill="#44B25D" fill-opacity="0.2"/>
<path d="M14.375 30.0064V31.8047C14.375 33.2913 17.5139 34.5 21.3828 34.5C25.2517 34.5 28.3906 33.2913 28.3906 31.8047V30.0064C26.8832 31.2319 24.1275 31.8047 21.3828 31.8047C18.6381 31.8047 15.8824 31.2319 14.375 30.0064ZM26.0547 18.3281C29.9236 18.3281 33.0625 17.1194 33.0625 15.6328C33.0625 14.1462 29.9236 12.9375 26.0547 12.9375C22.1858 12.9375 19.0469 14.1462 19.0469 15.6328C19.0469 17.1194 22.1858 18.3281 26.0547 18.3281ZM14.375 25.5886V27.7617C14.375 29.2484 17.5139 30.457 21.3828 30.457C25.2517 30.457 28.3906 29.2484 28.3906 27.7617V25.5886C26.8832 27.0205 24.1239 27.7617 21.3828 27.7617C18.6417 27.7617 15.8824 27.0205 14.375 25.5886ZM29.5586 26.0519C31.65 25.5844 33.0625 24.7169 33.0625 23.7188V21.9205C32.2157 22.6111 30.9711 23.0828 29.5586 23.3734V26.0519ZM21.3828 19.6758C17.5139 19.6758 14.375 21.1835 14.375 23.0449C14.375 24.9064 17.5139 26.4141 21.3828 26.4141C25.2517 26.4141 28.3906 24.9064 28.3906 23.0449C28.3906 21.1835 25.2517 19.6758 21.3828 19.6758ZM29.387 22.0468C31.577 21.592 33.0625 20.6992 33.0625 19.6758V17.8775C31.7668 18.9346 29.5403 19.5031 27.1971 19.6379C28.2738 20.2401 29.0659 21.0487 29.387 22.0468Z" fill="#44B35D"/>
</svg>
